<svg width="30" height="30" viewBox="0 0 30 30" fill="none" xmlns="http://www.w3.org/2000/svg">
<path d="M18.75 19.3594L15.0938 23.1563L11.4844 19.3594C11.4844 19.3594 6.75 20.5313 5.4375 20.8594C4.125 21.1875 3.75 24.2344 3.75 26.3906" stroke="#DCD8D8" stroke-width="2" stroke-miterlimit="10" stroke-linecap="round" stroke-linejoin="round"/>
<path d="M19.7344 6.89062C19.125 3.98438 16.3125 3.51562 15 3.51562C13.3594 3.51562 10.6875 3.89062 10.2656 7.35937C9.9375 10.0312 11.1563 13.4531 12.0469 14.625C13.0781 15.8906 13.9687 16.5469 15.2344 16.5469C16.4062 16.5469 17.2031 15.9844 18.2344 14.4375C19.1719 12.9844 20.25 9.32812 19.7344 6.89062Z" stroke="#DCD8D8" stroke-width="2" stroke-miterlimit="10" stroke-linecap="round" stroke-linejoin="round"/>
<path d="M28.5938 26.25C28.5938 26.7656 28.1719 27.1875 27.6562 27.1875H20.1562C19.6406 27.1875 19.2188 26.7656 19.2188 26.25V21.5625C19.2188 21.0469 19.6406 20.625 20.1562 20.625H27.6562C28.1719 20.625 28.5938 21.0469 28.5938 21.5625V26.25Z" stroke="#DCD8D8" stroke-width="2" stroke-miterlimit="10" stroke-linecap="round" stroke-linejoin="round"/>
<path d="M21 20.5313V19.5938C21 17.9531 22.3125 16.6875 23.9063 16.6875C25.5 16.6875 26.8125 18 26.8125 19.5938V20.5313" stroke="#DCD8D8" stroke-width="2" stroke-miterlimit="10" stroke-linecap="round" stroke-linejoin="round"/>
<path d="M23.9062 24.2813C24.3205 24.2813 24.6562 23.9455 24.6562 23.5313C24.6562 23.117 24.3205 22.7812 23.9062 22.7812C23.492 22.7812 23.1562 23.117 23.1562 23.5313C23.1562 23.9455 23.492 24.2813 23.9062 24.2813Z" stroke="#DCD8D8" stroke-width="2" stroke-miterlimit="10" stroke-linecap="round" stroke-linejoin="round"/>
<path d="M23.9062 24.3281V25.4531" stroke="#DCD8D8" stroke-width="2" stroke-miterlimit="10" stroke-linecap="round" stroke-linejoin="round"/>
</svg>
