<svg width="15" height="20" viewBox="0 0 15 20" fill="none" xmlns="http://www.w3.org/2000/svg">
<path d="M15 18.35V19C15 19.2652 14.921 19.5196 14.7803 19.7071C14.6397 19.8946 14.4489 20 14.25 20H12.75C9.36849 20 6.12548 18.2089 3.73439 15.0208C1.3433 11.8327 0 7.50868 0 3L0 1C0 0.734784 0.0790176 0.48043 0.21967 0.292893C0.360322 0.105357 0.551088 0 0.75 0L3.75 0C3.94891 0 4.13968 0.105357 4.28033 0.292893C4.42098 0.48043 4.5 0.734784 4.5 1V5C4.5 5.56 4.2675 6.31 3.975 6.7L2.37 8.84C3.51 12.44 5.67 15.32 8.37 16.84L9.96 14.72C10.26 14.32 10.8225 14.01 11.235 14.01H14.25C14.4476 14.0126 14.6365 14.1192 14.7755 14.3064C14.9145 14.4937 14.9925 14.7465 14.9925 15.01V18.36L15 18.35Z" fill="#EDEDED"/>
</svg>
